<svg width="162.382" height="157.858" viewBox="0 0 42.964 41.766" xmlns="http://www.w3.org/2000/svg"><g transform="matrix(.4382 0 0 -.44387 -139.506 129.016)" clip-path="url(#clipPath4667)" style="display:inline"><g clip-path="url(#clipPath3696)"><g clip-path="url(#clipPath3706)" transform="matrix(.75 0 0 -.75 0 432)"><path style="fill:#18558a;fill-opacity:1;fill-rule:nonzero;stroke:none" d="M128.992 22.863c-6.399-2.776-14.672-4.933-24.201-6.388-1.212 3.075-5.271 5.216-11.005 4.898-7.584-.639-13.848-5.617-14.111-10.539-.063-4.833 5.133-7.234 11.76-6.565 4.939.604 9.409 2.702 11.865 5.689 5.672 1.039 10.869 2.411 15.452 4.075C106.005 4.909 90.771-.105 73.867.001 55.666.417 39.82 6.806 26.944 17.537a74.995 74.995 0 0 1 4.515-1.77c3.188-1.118 6.628-2.084 10.32-2.908a15.612 15.612 0 0 1 2.126-2.134c5.008-3.947 11.813-5.572 16.829-3.65 4.947 2.086 5.643 7.455.571 12.494-.122.115-.249.225-.374.336a638.163 638.163 0 0 1 7.346 13.422c.264-.021.523-.037.791-.047 6.182-.002 11.38 3.244 13.702 8.287a437.27 437.27 0 0 1 21.299.805c1.77-4.726 6.206-7.422 11.425-6.849 5.258.729 9.604 4.317 11.815 9.185 7.81 1.167 13.971 2.609 18.123 4.277-3.636-9.845-9.273-18.615-16.44-26.122zm-77.263 100.1a10.43 10.43 0 0 1 .669-4.611 342.304 342.304 0 0 1-9.017-8.631 12.452 12.452 0 0 1-4.929.598c-5.453-.598-9.96-4.246-12.15-9.313-10.543-1.104-18.511-2.574-23.1-4.303 3.348 11.137 9.242 21.217 17.305 29.879 11.177 11.6 25.568 19.631 42.371 22.387-.729-3.449-1.365-8.529-1.908-15.041-5.015-1.854-8.667-5.862-9.241-10.965z" transform="matrix(.8 0 0 .8 429.575 191.6)"/><path style="fill:#52b4e9;fill-opacity:1;fill-rule:nonzero;stroke:none" d="M116.769 98.322a299.355 299.355 0 0 1-.786 10.273c2.917 1.02 4.887 3.191 5.634 5.982 8.255-1.283 15.007-2.916 19.855-4.857 5.705-10.848 8.763-23.164 8.583-36.474a77.543 77.543 0 0 0-1.906-15.141c-4.245-1.246-11.006-2.316-19.798-3.183-1.309 4.73-5.239 7.975-10.744 7.858-5.509-.283-10.534-4.153-12.923-9.44a679.575 679.575 0 0 0-21.777-.529c-2.272 5.306-7.661 9.073-14.182 9.254-8.619-.021-14.958-6.531-14.811-14.599.174-3.672 1.643-6.894 3.976-9.34a9354.074 9354.074 0 0 0-6.776-13.802c-3.134.436-6.178.036-8.43-1.296-1.457-.93-2.366-2.074-2.78-3.33-8.899 1.67-16.405 3.936-21.976 6.767-5.81 6.845-10.389 14.609-13.467 23.19 2.983-1.43 7.404-2.722 13.112-3.838 2.088-4.733 6.079-8.311 10.853-9.193 6.277-1.012 11.368 3.782 11.002 11.611-.619 7.762-6.823 14.408-13.535 14.898-5.051.178-8.453-2.924-9.486-7.482-6.53.832-11.451 1.808-14.528 2.908A79.743 79.743 0 0 0 .011 73.33a78.55 78.55 0 0 0 1.077 14.311c4.478 1.072 12.966 1.98 24.467 2.652 1.542-4.965 5.754-8.426 11.468-8.459 3.771.107 7.278 1.84 9.901 4.57 3.433-1.203 6.974-2.439 10.597-3.709a16.352 16.352 0 0 1 1.422-5.719c3.811-7.745 12.721-10.93 20.687-7.292 7.763 3.92 10.887 12.849 7.212 20.681-3.859 7.715-12.715 10.701-20.573 7.105a15.933 15.933 0 0 1-4.753-3.521 1383.4 1383.4 0 0 1-9.976 3.301c.009 1.922-.31 3.691-.894 5.268a437.721 437.721 0 0 0 9.26 8.953c1.658-.584 3.51-.906 5.509-.912 8.343.291 14.826 6.336 14.851 13.291-.139 5.195-3.646 8.992-8.662 10.48.156 6.811.346 12.092.557 15.604a66.93 66.93 0 0 0 1.621.063c21.394.158 40.244-8.117 54.519-22.254a78.642 78.642 0 0 0 7.312-8.623c-4.175 1.709-9.402 3.193-15.498 4.418-2.441 4.246-6.946 7.42-12.096 8.314-6.783.992-12.112-2.934-11.742-9.832.435-5.205 4.297-10.068 9.359-12.494.236-3.443.438-7 .598-10.664-4.977-1.967-8.497-7.029-8.538-13.484.19-8.538 6.678-15.156 14.459-15.214 7.737.212 13.017 6.581 12.912 14.615-.262 6.035-3.473 11.143-8.298 13.543z" transform="matrix(.8 0 0 .8 429.575 191.6)"/><path style="fill:#d3d2d2;fill-opacity:1;fill-rule:nonzero;stroke:none" d="M112.186 77.484c-3.967.078-7.12 3.502-7.316 7.792.022 4.357 3.062 7.533 7.009 7.42 3.887-.244 6.95-3.518 7.066-7.727.048-4.196-2.867-7.464-6.759-7.485zm-1.748 36.963c-3.771.438-7.071 3.584-7.458 7.061-.283 3.512 2.328 5.615 5.923 5.211 3.597-.564 6.706-3.359 7.205-6.744.456-3.383-1.94-5.87-5.67-5.528zM27.57 42.665c-3.324.506-5.99 3.652-6.459 7.367-.345 3.729 1.772 6.488 5.158 6.267 3.406-.32 6.422-3.643 6.797-7.567.243-3.921-2.217-6.501-5.496-6.067zm9.614 46.392c-3.918-.041-6.576 3.023-6.34 7.029.295 4.037 3.314 7.287 7.074 7.621 3.834.18 6.732-2.75 6.604-6.883-.245-4.191-3.506-7.578-7.338-7.767zm28.4 28.138c-4.205-.033-7.271 2.727-7.072 6.223.278 3.527 3.522 6.186 7.527 6.355 4.036.08 7.134-2.426 7.148-5.898-.099-3.592-3.393-6.533-7.603-6.68zm10.751-40.652c-4.078-1.863-8.7-.232-10.622 3.728-1.834 4.057-.218 8.576 3.75 10.564 4.037 1.885 8.63.33 10.596-3.678 1.879-4.024.29-8.61-3.724-10.614zM56.449 10.381c-2.582-1.104-6.299-.281-8.88 1.854-2.529 2.255-2.833 4.95-.403 6.354 2.536 1.363 6.701.56 9.349-1.804 2.598-2.48 2.438-5.182-.066-6.404zm12.328 44.274c4.415-.11 7.815-3.444 7.864-7.589-.095-4.176-3.404-7.191-7.69-7.214-4.296.145-7.643 3.309-7.816 7.39-.03 4.132 3.25 7.408 7.642 7.413zm54.383-5.463c-.417-3.855-3.322-7.061-6.953-7.453-3.635-.331-6.361 2.382-6.155 6.369.328 4.009 3.506 7.406 7.241 7.65 3.727.161 6.152-2.741 5.867-6.566zM92.074 7.497c-3.538-.308-6.148 1.137-5.983 3.58.268 2.503 3.393 4.884 7.191 5.215 3.804.22 6.271-1.578 5.848-4.005-.534-2.443-3.574-4.358-7.056-4.79z" transform="matrix(.8 0 0 .8 429.575 191.6)"/><path style="fill:#18558a;fill-opacity:1;fill-rule:nonzero;stroke:none" d="M-169.925 7.86h-10.71v-24.465h9.52c1.657 0 3.08.198 4.27.595 1.213.397 2.112.933 2.695 1.61 1.12 1.26 1.68 2.683 1.68 4.27 0 1.913-.607 3.337-1.82 4.27-.443.327-.747.537-.91.63-.163.07-.455.198-.875.385 1.517.327 2.718 1.015 3.605 2.065.91 1.027 1.365 2.31 1.365 3.85 0 1.703-.583 3.208-1.75 4.515-1.377 1.517-3.733 2.275-7.07 2.275zm-6.58-14.315h5.25c2.987 0 4.48-1.015 4.48-3.045 0-1.167-.362-2.007-1.085-2.52-.723-.513-1.843-.77-3.36-.77h-5.285zm0 10.5h6.475c1.517 0 2.672-.233 3.465-.7.817-.49 1.225-1.4 1.225-2.73 0-2.17-1.738-3.255-5.215-3.255h-5.95zm29.753-11.13c-1.937 0-3.395.63-4.375 1.89-.98 1.26-1.47 2.952-1.47 5.075v7.98h-3.92v-18.62h3.92v3.745a8.17 8.17 0 0 1 2.555-2.87c1.096-.747 2.251-1.132 3.465-1.155l.035 3.955h-.21zm21.437 7.35h-14.595c.093 1.353.711 2.45 1.855 3.29 1.143.817 2.45 1.225 3.92 1.225 2.333 0 4.106-.735 5.32-2.205l2.24 2.45c-2.007 2.077-4.62 3.115-7.84 3.115-2.614 0-4.842-.863-6.685-2.59-1.82-1.75-2.73-4.083-2.73-7 0-2.94.933-5.273 2.8-7 1.866-1.727 4.06-2.59 6.58-2.59 2.543 0 4.701.77 6.475 2.31 1.773 1.517 2.66 3.617 2.66 6.3zm-14.595-3.08h10.675c0-1.563-.49-2.765-1.47-3.605-.98-.84-2.194-1.26-3.64-1.26-1.424 0-2.707.443-3.85 1.33-1.144.863-1.715 2.042-1.715 3.535zm33.956 10.675h-3.57V5.375c-1.54 1.843-3.605 2.765-6.195 2.765-1.936 0-3.546-.548-4.83-1.645-1.26-1.097-1.89-2.555-1.89-4.375 0-1.843.677-3.22 2.03-4.13 1.354-.91 3.185-1.365 5.495-1.365h5.075v-.7c0-2.473-1.376-3.71-4.13-3.71-1.726 0-3.523.63-5.39 1.89l-1.75-2.45c2.264-1.797 4.83-2.695 7.7-2.695 2.194 0 3.979.56 5.355 1.68 1.4 1.097 2.1 2.835 2.1 5.215zm-3.92-6.93V-.645h-4.41c-2.823 0-4.235.887-4.235 2.66 0 .91.35 1.61 1.05 2.1.7.467 1.669.7 2.905.7 1.26 0 2.357-.35 3.29-1.05.934-.7 1.4-1.645 1.4-2.835zm13.331 6.93h-3.92v-25.97h3.92v15.26l7.56-7.91h5.04l-7.07 7.385 7.595 11.235h-4.76l-5.53-8.155-2.835 2.87zm26.358-18.9c2.497 0 4.632.863 6.405 2.59 1.773 1.727 2.66 4.025 2.66 6.895 0 2.87-.887 5.203-2.66 7-1.75 1.797-3.803 2.695-6.16 2.695-2.333 0-4.433-1.027-6.3-3.08v9.59h-3.92v-25.41h3.92v3.255c1.54-2.357 3.558-3.535 6.055-3.535zm-6.125 9.625c0 1.773.537 3.232 1.61 4.375 1.073 1.12 2.38 1.68 3.92 1.68s2.882-.56 4.025-1.68c1.143-1.12 1.715-2.567 1.715-4.34 0-1.797-.56-3.278-1.68-4.445-1.12-1.19-2.462-1.785-4.025-1.785-1.563 0-2.882.595-3.955 1.785-1.073 1.167-1.61 2.637-1.61 4.41zm24.006 4.375c1.12 1.12 2.531 1.68 4.235 1.68 1.703 0 3.103-.56 4.2-1.68 1.12-1.143 1.68-2.613 1.68-4.41 0-1.797-.56-3.255-1.68-4.375-1.097-1.143-2.497-1.715-4.2-1.715-1.704 0-3.115.572-4.235 1.715-1.097 1.12-1.645 2.578-1.645 4.375 0 1.797.548 3.267 1.645 4.41zm11.235 2.415c-1.867 1.843-4.2 2.765-7 2.765s-5.134-.922-7-2.765c-1.867-1.867-2.8-4.142-2.8-6.825s.933-4.947 2.8-6.79c1.866-1.867 4.2-2.8 7-2.8s5.133.933 7 2.8c1.866 1.843 2.8 4.107 2.8 6.79s-.934 4.958-2.8 6.825zm11.177 2.485h-3.92v-18.62h3.92zm-3.675-22.33c-.49-.49-.735-1.073-.735-1.75s.245-1.26.735-1.75 1.073-.735 1.75-.735c.676 0 1.26.245 1.75.735s.735 1.073.735 1.75-.245 1.26-.735 1.75a2.39 2.39 0 0 1-1.75.735c-.677 0-1.26-.245-1.75-.735zm13.245 12.25V7.86h-3.92v-18.62h3.92v3.395a7.013 7.013 0 0 1 2.59-2.695 7.04 7.04 0 0 1 3.605-.98c2.1 0 3.792.642 5.075 1.925 1.307 1.283 1.96 3.138 1.96 5.565V7.86h-3.92V-2.36c0-3.43-1.423-5.145-4.27-5.145a5.092 5.092 0 0 0-3.535 1.365c-1.003.887-1.505 2.193-1.505 3.92zM2.942-7.61v9.45c0 .887.233 1.598.7 2.135.466.513 1.12.77 1.96.77.84 0 1.645-.408 2.415-1.225l1.61 2.765C8.25 7.522 6.722 8.14 5.042 8.14c-1.657 0-3.08-.572-4.27-1.715-1.167-1.167-1.75-2.73-1.75-4.69V-7.61h-2.345v-3.15h2.345v-5.845h3.92v5.845h4.9v3.15zm27.314-5.775c-1.19 0-2.17.245-2.94.735s-1.155 1.237-1.155 2.24c0 .98.385 1.738 1.155 2.275.77.513 2.403 1.073 4.9 1.68 2.52.607 4.41 1.458 5.67 2.555 1.283 1.097 1.925 2.718 1.925 4.865 0 2.123-.805 3.85-2.415 5.18-1.61 1.33-3.722 1.995-6.335 1.995-3.827 0-7.222-1.318-10.185-3.955l2.59-3.115c2.473 2.147 5.04 3.22 7.7 3.22 1.33 0 2.38-.28 3.15-.84.793-.583 1.19-1.342 1.19-2.275 0-.957-.373-1.692-1.12-2.205-.723-.537-1.983-1.015-3.78-1.435-1.797-.443-3.162-.84-4.095-1.19a9.618 9.618 0 0 1-2.485-1.435c-1.447-1.097-2.17-2.777-2.17-5.04s.817-4.002 2.45-5.215c1.657-1.237 3.698-1.855 6.125-1.855 1.563 0 3.115.257 4.655.77s2.87 1.237 3.99 2.17l-2.205 3.115c-.723-.653-1.703-1.19-2.94-1.61a11.378 11.378 0 0 0-3.675-.63zM48.731 2.96c1.12 1.12 2.532 1.68 4.235 1.68 1.703 0 3.103-.56 4.2-1.68 1.12-1.143 1.68-2.613 1.68-4.41 0-1.797-.56-3.255-1.68-4.375-1.097-1.143-2.497-1.715-4.2-1.715-1.703 0-3.115.572-4.235 1.715-1.097 1.12-1.645 2.578-1.645 4.375 0 1.797.548 3.267 1.645 4.41zm11.235 2.415c-1.867 1.843-4.2 2.765-7 2.765s-5.133-.922-7-2.765c-1.867-1.867-2.8-4.142-2.8-6.825s.933-4.947 2.8-6.79c1.867-1.867 4.2-2.8 7-2.8s5.133.933 7 2.8c1.867 1.843 2.8 4.107 2.8 6.79s-.933 4.958-2.8 6.825zM71.143 7.86h-3.92v-25.97h3.92zm18.67-8.54v-10.08h3.92V7.86h-3.92V4.465a6.939 6.939 0 0 1-2.625 2.695 6.85 6.85 0 0 1-3.57.98c-2.1 0-3.803-.642-5.11-1.925-1.283-1.283-1.925-3.138-1.925-5.565v-11.41h3.92V-.54c0 3.43 1.424 5.145 4.27 5.145 1.354 0 2.532-.443 3.535-1.33 1.004-.91 1.505-2.228 1.505-3.955zm14.437-6.93v9.45c0 .887.234 1.598.7 2.135.467.513 1.12.77 1.96.77.84 0 1.645-.408 2.415-1.225l1.61 2.765c-1.376 1.237-2.905 1.855-4.585 1.855-1.656 0-3.08-.572-4.27-1.715-1.166-1.167-1.75-2.73-1.75-4.69V-7.61h-2.345v-3.15h2.345v-5.845h3.92v5.845h4.9v3.15zm13.719 15.47h-3.92v-18.62h3.92zm-3.675-22.33c-.49-.49-.735-1.073-.735-1.75s.245-1.26.735-1.75 1.073-.735 1.75-.735 1.26.245 1.75.735.735 1.073.735 1.75-.245 1.26-.735 1.75-1.073.735-1.75.735-1.26-.245-1.75-.735zm13.665 17.43c1.12 1.12 2.532 1.68 4.235 1.68 1.704 0 3.104-.56 4.2-1.68 1.12-1.143 1.68-2.613 1.68-4.41 0-1.797-.56-3.255-1.68-4.375-1.096-1.143-2.496-1.715-4.2-1.715-1.703 0-3.115.572-4.235 1.715-1.096 1.12-1.645 2.578-1.645 4.375 0 1.797.549 3.267 1.645 4.41zm11.235 2.415c-1.866 1.843-4.2 2.765-7 2.765s-5.133-.922-7-2.765c-1.866-1.867-2.8-4.142-2.8-6.825s.934-4.947 2.8-6.79c1.867-1.867 4.2-2.8 7-2.8s5.134.933 7 2.8c1.867 1.843 2.8 4.107 2.8 6.79s-.933 4.958-2.8 6.825zm11.177-7.595V7.86h-3.92v-18.62h3.92v3.395a7.02 7.02 0 0 1 2.59-2.695 7.04 7.04 0 0 1 3.605-.98c2.1 0 3.792.642 5.075 1.925 1.307 1.283 1.96 3.138 1.96 5.565V7.86h-3.92V-2.36c0-3.43-1.423-5.145-4.27-5.145-1.353 0-2.531.455-3.535 1.365-1.003.887-1.505 2.193-1.505 3.92zm31.972 4.515c0 1.773-.641 3.197-1.925 4.27-1.283 1.05-2.928 1.575-4.935 1.575-1.353 0-2.765-.245-4.235-.735-1.446-.49-2.73-1.178-3.85-2.065l1.89-3.045c2.17 1.633 4.27 2.45 6.3 2.45.887 0 1.587-.198 2.1-.595.514-.42.77-.945.77-1.575 0-.933-1.236-1.773-3.71-2.52a4.093 4.093 0 0 0-.42-.14c-3.873-1.05-5.81-2.8-5.81-5.25 0-1.727.665-3.103 1.995-4.13 1.354-1.05 3.104-1.575 5.25-1.575 2.147 0 4.177.63 6.09 1.89l-1.47 2.905c-1.516-1.003-3.161-1.505-4.935-1.505-.933 0-1.691.175-2.275.525-.583.327-.875.828-.875 1.505 0 .607.304 1.05.91 1.33.42.21 1.004.408 1.75.595.77.187 1.447.373 2.03.56.584.187 1.144.397 1.68.63.56.233 1.155.56 1.785.98 1.26.84 1.89 2.147 1.89 3.92z" transform="translate(495 354)"/></g></g></g></svg>