<svg xmlns="http://www.w3.org/2000/svg" width="450" height="140" xml:space="preserve"><path d="m146.3 47.482-15.599-.003v45.186h15.783c14.132 0 23.264-8.84 23.264-22.515.003-13.56-9.421-22.668-23.448-22.668zm-.438 37.51h-5.948V55.21h6.359c8.308 0 14.341 6.288 14.341 14.953 0 8.732-6.066 14.829-14.752 14.829zM36.412 49.739v40.672l35.224 20.334 35.223-20.334V49.739L71.638 29.4 36.412 49.739zm60.911 5.504v29.661L71.638 99.733 45.953 84.904V55.243l25.685-14.829 25.685 14.829zm252.712-3.719a4.718 4.718 0 0 1-4.712 4.711 4.718 4.718 0 0 1-4.714-4.711 4.72 4.72 0 0 1 4.714-4.714 4.719 4.719 0 0 1 4.712 4.714zm-.675 10.174h-8.076v30.967h8.076V61.698zM221.721 73.514c-3.458-1.337-4.534-1.983-4.534-3.444 0-1.386 1.113-2.215 2.978-2.215 3.076 0 5.378 1.667 7.407 3.493l4.687-5.008c-3.013-3.243-7.488-5.177-11.998-5.177-6.539 0-11.111 3.797-11.111 9.234 0 6.19 4.78 8.603 9.46 10.149a83.67 83.67 0 0 0 1.559.497c2.661.84 4.127 1.304 4.127 2.913 0 .899-.491 2.409-3.775 2.409-3.043 0-6.045-1.479-7.699-3.776l-4.752 5.054c3.294 3.734 7.333 5.551 12.346 5.551 7.392 0 11.984-3.586 11.984-9.355.002-5.792-4.032-7.765-10.679-10.325zm181.19 0c-3.457-1.337-4.533-1.983-4.533-3.444 0-1.386 1.112-2.215 2.978-2.215 3.075 0 5.378 1.667 7.408 3.493l4.683-5.008c-3.011-3.243-7.485-5.177-11.998-5.177-6.538 0-11.107 3.797-11.107 9.234 0 6.19 4.778 8.603 9.459 10.149.562.183 1.076.351 1.556.497 2.666.84 4.129 1.304 4.129 2.913 0 .899-.492 2.409-3.773 2.409-3.045 0-6.046-1.479-7.699-3.776l-4.753 5.054c3.292 3.734 7.331 5.551 12.347 5.551 7.393 0 11.982-3.586 11.982-9.355.001-5.792-4.033-7.765-10.679-10.325zm-156.102-21.99c0 2.596-2.116 4.711-4.714 4.711s-4.714-2.115-4.714-4.711c0-2.599 2.113-4.714 4.714-4.714s4.714 2.115 4.714 4.714zm-9.589 53.165c5.32 0 8.922-3.658 8.922-10.942V61.698h-8.104v31.714c0 2.811-1.15 4.204-3.084 4.204-.937 0-1.843-.276-2.692-.758L230.9 103.6c1.997.788 3.629 1.089 6.32 1.089zm35.168-41.27c-2.167-1.432-5.183-2.254-8.271-2.254-5.094 0-9.274 1.834-11.786 5.167.549.597 4.034 4.292 4.711 5 1.269-1.772 2.479-2.692 4.271-3.251a7.253 7.253 0 0 1 2.16-.314c.984 0 1.971.178 2.703.492 1.916.814 3.013 2.403 3.013 4.361v2.022c-.224-.114-2.751-1.19-6.848-1.19-6.52 0-11.435 4.307-11.435 10.015 0 5.644 4.227 9.734 10.05 9.734 3.635 0 5.89-1.6 7.885-3.251h.348v2.72h7.669V72.422c.001-4.014-1.503-7.043-4.47-9.003zm-3.197 19.139c0 1.574-3.292 4.077-7.193 4.077-2.408 0-3.992-1.586-3.992-3.567 0-1.293.717-3.686 4.9-3.686 3.091 0 6.282.966 6.282.966v2.21h.003zm22.695-17.235h-.201v-3.627h-8.23v30.966h8.23l-.013-13.939c0-5.588 2.771-9.392 9.75-9.392v-8.166c-4.16.067-7.531 1.329-9.536 4.158zm34.718 24.624h.379v2.715h7.685V47.479h-8.091v16.767h-.311c-1.604-1.922-5.408-3.081-7.982-3.081-9.819 0-15.119 8.25-15.119 16.015 0 5.914 2.554 9.646 4.69 11.737 2.779 2.716 6.58 4.276 10.429 4.276 1.841.002 4.771-.548 8.32-3.246zm-7.856-4.058c-4.442 0-7.918-3.826-7.918-8.709 0-4.902 3.46-8.74 7.878-8.74 4.905 0 7.948 4.539 7.948 8.74 0 4.8-3.546 8.709-7.908 8.709zm45.613-21.659h-.313v-2.535h-8.089v30.966h8.089V76.548c0-7.119 4.422-8.181 7.056-8.181 4.665 0 6.323 3.871 6.323 7.496v16.799h8.092V75.958c0-9.272-4.956-14.79-13.261-14.79-5.732 0-7.855 2.972-7.897 3.062zM204.734 76.842c-.053-9.26-6.288-15.674-15.201-15.674-8.898 0-15.356 6.72-15.356 15.985 0 9.448 6.557 16.045 15.95 16.045 5.497 0 10.271-2.024 13.115-5.551a421.824 421.824 0 0 0-4.819-5.071c-1.487 1.699-4.233 3.469-7.657 3.469-4.099 0-7.195-2.313-8.195-6.287h21.979c.124-.588.184-1.924.184-2.916zm-22.137-2.831c.921-3.711 3.608-5.752 7.217-5.752 3.526 0 6.026 1.979 6.934 5.752h-14.151z" fill="#00814D"/></svg>