<svg id="Fairstone" xmlns="http://www.w3.org/2000/svg" viewBox="0 0 299.82 72.9"><defs><style>.cls-1{fill:#52356e}</style></defs><g id="Fairstone-2" data-name="Fairstone"><g id="Logotype"><path class="cls-1" d="M101.6 57.61h16.91V50.4H94.68a1.08 1.08 0 0 0-1.08 1.08V93.6h8V74.4h13.7v-7.27h-13.7v-9.52ZM130.35 64a24.51 24.51 0 0 0-10.76 2.42l2.14 5.19a20.74 20.74 0 0 1 8-1.69c3.95 0 5.69 1.63 5.69 4v2.88c-1.63-1.24-5.24-1.92-7.21-1.92-5.41 0-11.72 2.48-11.72 9.07 0 5.58 4.06 10.48 12.91 10.48 6.65 0 10.88-1.8 13.08-3.55V75.62c-.01-7.1-2.55-11.62-12.13-11.62Zm5.07 23.84A11.4 11.4 0 0 1 130 89c-3.61 0-5.86-1.92-5.86-4.9 0-2.54 2.54-3.94 5.35-3.94a10.07 10.07 0 0 1 6 2.08v5.58Zm15.79-37.44a4.62 4.62 0 1 0 4.62 4.6 4.38 4.38 0 0 0-4.62-4.6Z" transform="translate(-21.6 -21.6)"/><path class="cls-1" d="M125.94 43.2h7.38V72h-7.38z"/><path class="cls-1" d="M173.92 64c-3.38 0-5.64 3.89-6.31 5.35V64.8h-7.33v28.8h7.33V77.71c0-2.87 1.75-6.82 5-6.82a6.68 6.68 0 0 1 3.94 1.47l2.54-6.93a9.37 9.37 0 0 0-5.17-1.43Zm13.65 8c0-1.63 1.63-2.59 3.55-2.59 2.76 0 5.41 2.2 5.92 2.76l2.65-5.07a15.45 15.45 0 0 0-9.86-3.27c-6.09 0-10 4.11-10 8.57 0 7.55 12.4 9.47 12.4 13.3 0 2.54-2 3.27-3.78 3.27a13.29 13.29 0 0 1-7.95-3.44l-2.71 5.3a18.64 18.64 0 0 0 11.16 3.66c6.59 0 10.82-3.49 10.82-9.07-.02-8.11-12.2-9.01-12.2-13.42Z" transform="translate(-21.6 -21.6)"/><path class="cls-1" d="M192.46 33.6h-7.38v9.6h-5.47v5.86h5.47V72h7.38V49.06h7.1V43.2h-7.1v-9.6z"/><path class="cls-1" d="M237.14 64c-9 0-15.78 6.82-15.78 15.33A15.61 15.61 0 1 0 237.14 64Zm-.23 24.7c-4.06 0-7.83-3.89-7.83-9.24 0-5.64 3.44-9.52 8.06-9.52 4.17 0 7.67 3.89 7.67 9.36-.01 5.62-3.16 9.4-7.9 9.4ZM271.93 64a13.68 13.68 0 0 0-9.13 3.78V64.8h-7.38v28.8h7.38v-20a8.87 8.87 0 0 1 6.14-3.21c4.45 0 5.07 3 5.07 7.78V93.6h7.38V74.32c.01-7.21-3.31-10.32-9.46-10.32Zm27.62 0c-9 0-15.39 6.54-15.39 15.33 0 9.24 6.43 15.16 15.95 15.16 6.43 0 10.82-2.25 12.34-3.55l-2.14-5.13a13.2 13.2 0 0 1-8.57 2.82c-4.51 0-9.36-1.24-10.14-6.59h21.92v-2.87c.01-8.11-4.61-15.17-13.97-15.17Zm-7.95 12.47c.84-4.23 3.78-6.76 8-6.76 4 0 6.48 3.1 6.54 6.76H291.6Z" transform="translate(-21.6 -21.6)"/><path class="cls-1" d="M290.41 43.93h1.52V48h.84v-4.07h1.52v-.73h-3.88v.73zm8.24-.73-1.29 3.76h-.01l-1.33-3.76h-1.18V48h.8v-3.7h.01l1.33 3.7h.69l1.34-3.7h.01V48h.8v-4.8h-1.17z"/></g><g id="Logosymbol"><path d="m55.29 42 7.65 7.65a1.07 1.07 0 0 1 0 1.52l-7.65 7.65a1.07 1.07 0 0 0 0 1.52l6.46 6.46a1.07 1.07 0 0 0 1.52 0l15.61-15.64a1.07 1.07 0 0 0 0-1.52L63.26 34a1.07 1.07 0 0 0-1.52 0l-6.46 6.46a1.07 1.07 0 0 0 .01 1.54Z" transform="translate(-21.6 -21.6)" style="fill:#ff6754"/><path class="cls-1" d="m21.91 51.16 27.73 27.72a1.07 1.07 0 0 0 1.52 0l8.18-8.18a1.07 1.07 0 0 0 0-1.52l-8.86-8.86a1.07 1.07 0 0 1 0-1.52l7.65-7.65a1.07 1.07 0 0 0 0-1.52L50.48 42a1.07 1.07 0 0 1 0-1.52l8.86-8.86a1.07 1.07 0 0 0 0-1.52l-8.18-8.18a1.07 1.07 0 0 0-1.52 0L21.91 49.64a1.07 1.07 0 0 0 0 1.52Z" transform="translate(-21.6 -21.6)"/></g></g></svg>