<svg xmlns="http://www.w3.org/2000/svg" width="193" height="33"><g fill="#002D72"><path d="M66.558 6.878v-2.22c-.56-.173-1.2-.285-2.305-.285-1.466 0-2.593.382-3.35 1.135-.805.802-1.213 2.048-1.213 3.704v3.112h-2.803v1.964h2.803v18.276h2.39V14.29h4.01v-1.965h-4.01V8.977c0-1.64.775-2.44 2.368-2.44.802 0 1.496.114 2.11.342zm3.837 5.447h2.39v20.24h-2.39z"/><path fill-rule="evenodd" clip-rule="evenodd" d="M72.848 4.884c-.33-.33-.757-.51-1.2-.51-.507 0-.98.19-1.33.54a1.86 1.86 0 0 0-.546 1.33c0 .487.19.944.536 1.288.353.35.83.545 1.34.545.955 0 1.76-.84 1.76-1.832 0-.517-.2-1-.56-1.36zM86.46 11.89c-2.266 0-4.193 1.01-5.427 2.85l-.485.722v-3.137h-2.39v20.24h2.39v-11.88c0-4.228 1.99-6.75 5.326-6.75 1.502 0 2.638.402 3.47 1.232 1.092 1.087 1.623 2.892 1.623 5.52v11.88h2.39V20.17c0-2.96-.706-5.166-2.1-6.554-1.15-1.145-2.764-1.727-4.798-1.727z"/><path d="M105.23 11.89c-2.346 0-4.644.54-6.508 1.518l.867 1.922c1.77-1 3.51-1.475 5.44-1.475 1.53 0 2.71.393 3.48 1.17.82.815 1.21 2.02 1.21 3.682v2.902l-.4-.22c-1.32-.74-3.13-1.16-4.98-1.16-2.47 0-4.57.73-5.91 2.06-1.1 1.09-1.65 2.54-1.65 4.31 0 2.03.55 3.61 1.66 4.71 1.08 1.08 2.72 1.67 4.61 1.67 2.4 0 4.42-.94 6.19-2.88l.46-.51v2.95h2.39v-14.2c0-2.1-.54-3.7-1.61-4.76-1.14-1.13-2.92-1.7-5.29-1.7zm4.508 11.642v4.278l-.05.068c-1.494 2.087-3.66 3.236-6.095 3.236-1.37 0-2.45-.385-3.213-1.144-.808-.805-1.22-2-1.22-3.55 0-2.717 1.89-4.34 5.055-4.34 2.298 0 3.86.355 5.387 1.223l.135.076v.15z"/><path fill-rule="evenodd" clip-rule="evenodd" d="M125.086 11.89c-2.266 0-4.193 1.01-5.425 2.85l-.48.722v-3.137h-2.39v20.24h2.39v-11.88c0-4.228 1.99-6.75 5.33-6.75 1.5 0 2.64.402 3.47 1.232 1.1 1.087 1.63 2.892 1.63 5.52v11.88H132V20.17c0-2.96-.708-5.166-2.1-6.554-1.153-1.145-2.768-1.727-4.8-1.727z"/><path d="m148.9 15.91 1.42-1.797c-1.735-1.474-3.784-2.224-6.097-2.224-2.135 0-4.133.81-5.626 2.3-1.904 1.89-2.91 4.78-2.91 8.35 0 3.51.993 6.36 2.868 8.22C140 32.2 141.942 33 144.028 33c2.47 0 4.397-.816 6.214-2.632l-1.397-1.513c-1.163 1.115-2.557 2.1-4.7 2.1-1.47 0-2.722-.504-3.724-1.502-1.5-1.5-2.3-3.972-2.3-7.147 0-5.008 2.38-8.373 5.91-8.373 2.13 0 3.52.783 4.88 1.977zm5.525-3.585h2.39v20.24h-2.39z"/><path fill-rule="evenodd" clip-rule="evenodd" d="M156.88 4.884a1.7 1.7 0 0 0-1.2-.51c-.508 0-.98.19-1.33.54a1.86 1.86 0 0 0-.545 1.33c0 .487.19.944.535 1.288.354.35.83.545 1.342.545.954 0 1.76-.84 1.76-1.832-.003-.517-.2-1-.563-1.36z"/><path d="M169.267 11.89c-2.344 0-4.64.54-6.507 1.518l.87 1.922c1.777-1 3.516-1.475 5.442-1.475 1.535 0 2.708.393 3.487 1.17.81.815 1.21 2.02 1.21 3.682v2.902l-.4-.22c-1.32-.74-3.13-1.16-4.97-1.16-2.48 0-4.57.73-5.91 2.06-1.1 1.09-1.66 2.54-1.66 4.31 0 2.03.55 3.61 1.66 4.71 1.08 1.08 2.72 1.67 4.61 1.67 2.4 0 4.42-.94 6.19-2.88l.46-.51v2.95h2.39v-14.2c0-2.1-.54-3.7-1.61-4.76-1.14-1.13-2.92-1.7-5.29-1.7zm4.508 11.642v4.278l-.05.068c-1.492 2.087-3.658 3.236-6.094 3.236-1.37 0-2.45-.385-3.21-1.144-.81-.805-1.22-2-1.22-3.55 0-2.717 1.89-4.34 5.06-4.34 2.3 0 3.86.355 5.39 1.223l.14.076v.15z"/><path fill-rule="evenodd" clip-rule="evenodd" d="m183.673 4.445-2.39 1.36v26.76h2.39z"/></g><path fill="#002D72" d="m15.73 26.67-.084-.1-.09.093c-1.48 1.507-3.194 2.304-4.96 2.304-3.69 0-6.37-2.758-6.37-6.557 0-3.8 2.68-6.556 6.37-6.556 1.766 0 3.48.797 4.96 2.303l.09.093.083-.1 2.23-2.684.06-.074-.07-.074c-1.97-2.324-4.35-3.453-7.25-3.453-2.92 0-5.59.974-7.52 2.743C1.1 16.522 0 19.218 0 22.41c0 3.19 1.102 5.89 3.19 7.803 1.93 1.77 4.6 2.743 7.52 2.743 2.907 0 5.278-1.13 7.25-3.452l.062-.074-.062-.075-2.23-2.685zm8.76-14.477h-4.07v20.372h4.19V12.193zm16.664 15.943c-1.117.677-2.158 1.02-3.098 1.02-1.357 0-1.962-.71-1.962-2.298V16.05h4.262v-3.833h-4.262V5.872l-.17.09-3.88 2.07-.062.032v4.15h-3.544v3.838h3.544V27.55c0 3.134 1.867 5.275 4.647 5.328 1.89.036 3.02-.517 3.71-.936l.04-.025.01-.046.93-3.6.07-.27-.25.15zm7.418-15.943H44.5v20.372h4.19V12.193z"/><path fill="red" d="M51.133 8.622C47.305 3.224 40.95 0 34.483 0c-6.47 0-12.83 3.224-16.65 8.622l-.195.276h4.82l.05-.053c3.29-3.373 7.57-5.155 11.98-5.155 4.402 0 8.68 1.782 11.973 5.155l.06.053h4.82l-.19-.276z"/><path fill="#002D72" d="M189.495 4.564a3.522 3.522 0 0 0-3.52 3.537c0 2 1.577 3.56 3.52 3.56 1.958 0 3.505-1.55 3.505-3.55 0-1.96-1.547-3.53-3.484-3.53h-.02zm.02.55c1.578 0 2.84 1.337 2.84 3.002 0 1.667-1.262 3.003-2.84 2.986-1.578 0-2.86-1.32-2.86-3.002 0-1.65 1.282-2.987 2.84-2.987h.02zm-.683 3.347h.443c.505 0 .757.19.853.7.08.52.176.88.27 1.01h.66c-.06-.12-.158-.36-.25-.97-.08-.58-.318-.89-.667-.96V8.2c.43-.127.78-.44.78-.958 0-.38-.12-.646-.36-.82-.24-.173-.63-.3-1.23-.3-.47 0-.79.047-1.12.096v3.945h.63v-1.7zm0-1.82c.11-.01.25-.03.462-.03.712 0 .96.35.96.69 0 .49-.443.68-.96.68h-.462V6.64z"/></svg>